<svg xmlns="http://www.w3.org/2000/svg" width="21.5" height="21.56" viewBox="0 0 21.5 21.56">
  <g id="message-notif-svgrepo-com" transform="translate(-1.25 -1.25)">
    <path id="Path_3" data-name="Path 3" d="M22,10v3q0,6-6,6h-.5a1.014,1.014,0,0,0-.8.4l-1.5,2a1.421,1.421,0,0,1-2.4,0l-1.5-2a1.13,1.13,0,0,0-.8-.4H8c-4,0-6-1-6-6V8Q2,2,8,2h6" fill="none" stroke="#ababab" stroke-linecap="round" stroke-linejoin="round" stroke-miterlimit="10" stroke-width="1.5"/>
    <path id="Path_4" data-name="Path 4" d="M19.5,7A2.5,2.5,0,1,0,17,4.5,2.5,2.5,0,0,0,19.5,7Z" fill="none" stroke="#1d5c39" stroke-linecap="round" stroke-linejoin="round" stroke-width="1.5"/>
    <path id="Path_5" data-name="Path 5" d="M16,11h.009" fill="none" stroke="#1d5c39" stroke-linecap="round" stroke-linejoin="round" stroke-width="2"/>
    <path id="Path_6" data-name="Path 6" d="M11.995,11H12" fill="none" stroke="#1d5c39" stroke-linecap="round" stroke-linejoin="round" stroke-width="2"/>
    <path id="Path_7" data-name="Path 7" d="M7.995,11H8" fill="none" stroke="#1d5c39" stroke-linecap="round" stroke-linejoin="round" stroke-width="2"/>
  </g>
</svg>
