<svg xmlns="http://www.w3.org/2000/svg" width="16.514" height="21.436" viewBox="0 0 16.514 21.436">
  <g id="ranking-svgrepo-com" transform="translate(-3.743 -1.25)">
    <path id="Path_8" data-name="Path 8" d="M13.3,8.11l1.32,2.64a1.622,1.622,0,0,0,1.06.78l2.39.4c1.53.26,1.89,1.36.79,2.46L17,16.25a1.632,1.632,0,0,0-.39,1.36l.53,2.31c.42,1.82-.55,2.53-2.16,1.58l-2.24-1.33a1.611,1.611,0,0,0-1.48,0L9.02,21.5c-1.61.95-2.58.24-2.16-1.58l.53-2.31A1.652,1.652,0,0,0,7,16.25L5.14,14.39c-1.1-1.1-.74-2.21.79-2.46l2.39-.4a1.654,1.654,0,0,0,1.06-.78L10.7,8.11C11.41,6.68,12.59,6.68,13.3,8.11Z" fill="none" stroke="#ababab" stroke-linecap="round" stroke-linejoin="round" stroke-width="1.5"/>
    <path id="Path_9" data-name="Path 9" d="M6,9V2" fill="none" stroke="#1d5c39" stroke-linecap="round" stroke-linejoin="round" stroke-width="1.5"/>
    <path id="Path_10" data-name="Path 10" d="M18,9V2" fill="none" stroke="#1d5c39" stroke-linecap="round" stroke-linejoin="round" stroke-width="1.5"/>
    <path id="Path_11" data-name="Path 11" d="M12,4V2" fill="none" stroke="#1d5c39" stroke-linecap="round" stroke-linejoin="round" stroke-width="1.5"/>
  </g>
</svg>
